<svg xmlns="http://www.w3.org/2000/svg" width="278.1" height="93.202" viewBox="0 0 278.1 93.202">
  <g id="Group_43" data-name="Group 43" transform="translate(293.433 -271.773)">
    <g id="xA6g8Z.tif">
      <g id="Group_40" data-name="Group 40">
        <path id="Path_44" data-name="Path 44" d="M-279.536,316.8V303.84c0-.993.323-1.316,1.306-1.315q3.4.006,6.81,0c.8,0,1.042-.245,1.045-1.052,0-.673-.012-1.348.016-2.021a.563.563,0,0,1,.268-.4c.852-.413,1.719-.8,2.623-1.209a2.342,2.342,0,0,0,.4.568,5.8,5.8,0,0,0,1.338.955c2.874,1.229,5.766,2.415,8.657,3.606a6.253,6.253,0,0,1,4.026,4.974.693.693,0,0,0,.075.152v8.708Zm15.825-6.546h2.456c.642,0,.72-.077.718-.737v-.877a.408.408,0,0,0-.36-.451.328.328,0,0,0-.07,0q-2.7-.01-5.394,0c-.3,0-.447.17-.444.475v1.008c.006.494.089.58.6.584C-265.379,310.262-264.544,310.259-263.711,310.257Zm-12.719,5.419a1,1,0,0,0,1.029-.97V314.7a1.012,1.012,0,0,0-.995-1.029,1.011,1.011,0,0,0-1.029.995A1.006,1.006,0,0,0-276.43,315.676Zm0-9.484a.994.994,0,0,0,.986-1,.993.993,0,0,0-1-.986.993.993,0,0,0-.986.978,1,1,0,0,0,1,1.011h0Zm7.538-1.006a.972.972,0,0,0-.961-.981h-.047a.99.99,0,0,0-1.01.971.99.99,0,0,0,.971,1.01h.06a.97.97,0,0,0,.989-.951v-.05Zm-7.517,5.743a.991.991,0,0,0,.982-1,.99.99,0,0,0-1-.982,1,1,0,0,0-1,1,.992.992,0,0,0,1,.982h.016Zm7.52-.991a.982.982,0,0,0-.973-.991h-.027a.994.994,0,0,0-1.022.965.994.994,0,0,0,.965,1.022q.032,0,.063,0a.981.981,0,0,0,1-.963v-.033Zm-1,3.747a1.014,1.014,0,0,0-1.009,1,1,1,0,0,0,1.01.99h0a.977.977,0,0,0,1-.954v-.041a.991.991,0,0,0-.987-.995h-.018Z" fill="#a1bf65"/>
        <path id="Path_45" data-name="Path 45" d="M-272.236,271.773c.807.119,1.628.182,2.419.367,2.106.492,4.208,1,6.292,1.575a2.446,2.446,0,0,1,1.691,3.017,2.485,2.485,0,0,1-.212.518c-.475.923-1.023,1.81-1.474,2.744a4.361,4.361,0,0,0-.42,1.491c-.087,1.013-.077,2.034-.106,3.037a7.568,7.568,0,0,1,1.021.485,2.1,2.1,0,0,1,.974,1.779,3.688,3.688,0,0,1-2.608,3.835.743.743,0,0,0-.366.455,8.273,8.273,0,0,1-6.483,6.067,8.368,8.368,0,0,1-9.754-6.107.552.552,0,0,0-.44-.454,3.5,3.5,0,0,1-2.491-3.037c-.15-1.73.348-2.474,2.028-2.987-.06-.514-.133-1.033-.178-1.555-.063-.754-.1-1.511-.164-2.265a1.563,1.563,0,0,0-.174-.574c-.484-.919-.989-1.827-1.478-2.743a2.484,2.484,0,0,1,.741-3.434,2.476,2.476,0,0,1,.959-.366c2.055-.513,4.107-1.042,6.17-1.521.751-.174,1.531-.221,2.3-.327Zm5.813,12.561a48.253,48.253,0,0,1-13.376.03,2.3,2.3,0,0,0,0,.352c.224,1.741.411,3.487.689,5.219a6.041,6.041,0,0,0,5.664,5.054,5.945,5.945,0,0,0,6.124-4.524C-266.874,288.45-266.71,286.369-266.423,284.334Zm-13.719-3.674a7.1,7.1,0,0,1,.42.734,1.2,1.2,0,0,0,1.118.771c.146.01.287.06.432.075a52.86,52.86,0,0,0,10,0,1.868,1.868,0,0,0,1.934-1.572,93.132,93.132,0,0,1-13.9-.008Z" fill="#a1bf65"/>
        <path id="Path_46" data-name="Path 46" d="M-293.433,308.1c.075-.278.141-.559.224-.834a6.335,6.335,0,0,1,3.834-4.238q4.313-1.781,8.642-3.522a3.433,3.433,0,0,0,1.794-1.261c.937.35,1.827.673,2.707,1.018a.421.421,0,0,1,.219.3c.026.392.01.786.01,1.242h-2.516a2.647,2.647,0,0,0-1.773.654,2.426,2.426,0,0,0-.93,1.865q-.015,6.676-.01,13.354a.572.572,0,0,0,.027.128h-12.228Z" fill="#a1bf65"/>
      </g>
    </g>
    <g id="Grocery_Concierge" data-name="Grocery Concierge" style="isolation: isolate">
      <g id="Group_44" data-name="Group 44" style="isolation: isolate">
        <path id="Path_48" data-name="Path 48" d="M-203.494,313.153a11.3,11.3,0,0,1-4.428.925,15.759,15.759,0,0,1-6.343-1.225,13.607,13.607,0,0,1-4.752-3.376,14.939,14.939,0,0,1-2.966-5.053,18.544,18.544,0,0,1-1.033-6.256,19.189,19.189,0,0,1,1.033-6.386,15.331,15.331,0,0,1,2.966-5.138,13.56,13.56,0,0,1,4.752-3.44,15.5,15.5,0,0,1,6.343-1.247,14.92,14.92,0,0,1,4.579.709,12.991,12.991,0,0,1,4,2.086,11.441,11.441,0,0,1,2.946,3.4,11.482,11.482,0,0,1,1.419,4.645h-6.45a6.46,6.46,0,0,0-2.322-3.87,6.756,6.756,0,0,0-4.171-1.29,7.885,7.885,0,0,0-3.87.881,7.317,7.317,0,0,0-2.581,2.365,10.367,10.367,0,0,0-1.44,3.376,16.8,16.8,0,0,0-.452,3.913,15.623,15.623,0,0,0,.452,3.762,10.174,10.174,0,0,0,1.44,3.29,7.379,7.379,0,0,0,2.581,2.343,7.874,7.874,0,0,0,3.87.881,7.325,7.325,0,0,0,5.181-1.7,7.384,7.384,0,0,0,2.129-4.924h-6.794v-5.03h12.9v16.6h-4.3l-.688-3.484A10.1,10.1,0,0,1-203.494,313.153Z" fill="#a1bf65"/>
        <path id="Path_49" data-name="Path 49" d="M-183.886,291.158v4.129h.086a7.481,7.481,0,0,1,1.161-1.914,7.617,7.617,0,0,1,1.677-1.5,8.263,8.263,0,0,1,2.021-.968,7.328,7.328,0,0,1,2.236-.343,4.813,4.813,0,0,1,1.333.214v5.676c-.287-.056-.631-.107-1.032-.15a10.928,10.928,0,0,0-1.161-.065,6.5,6.5,0,0,0-2.838.56,4.91,4.91,0,0,0-1.871,1.526,6.114,6.114,0,0,0-1.01,2.257,12.28,12.28,0,0,0-.3,2.8V313.39h-6.106V291.158Z" fill="#a1bf65"/>
        <path id="Path_50" data-name="Path 50" d="M-173.609,297.458a10.4,10.4,0,0,1,2.322-3.7,10.392,10.392,0,0,1,3.612-2.364,12.673,12.673,0,0,1,4.73-.839,12.855,12.855,0,0,1,4.752.839,10.36,10.36,0,0,1,3.633,2.364,10.429,10.429,0,0,1,2.322,3.7,13.667,13.667,0,0,1,.817,4.838,13.476,13.476,0,0,1-.817,4.815,10.438,10.438,0,0,1-2.322,3.677,10.111,10.111,0,0,1-3.633,2.344,13.191,13.191,0,0,1-4.752.816,13.005,13.005,0,0,1-4.73-.816,10.139,10.139,0,0,1-3.612-2.344,10.41,10.41,0,0,1-2.322-3.677,13.454,13.454,0,0,1-.817-4.815A13.645,13.645,0,0,1-173.609,297.458Zm5.547,7.439a6.914,6.914,0,0,0,.881,2.279,4.7,4.7,0,0,0,1.656,1.613,5.057,5.057,0,0,0,2.58.6,5.175,5.175,0,0,0,2.6-.6,4.642,4.642,0,0,0,1.677-1.613,6.915,6.915,0,0,0,.882-2.279,13.008,13.008,0,0,0,.258-2.6,13.332,13.332,0,0,0-.258-2.623,6.691,6.691,0,0,0-.882-2.279,4.893,4.893,0,0,0-1.677-1.613,5.034,5.034,0,0,0-2.6-.624,4.92,4.92,0,0,0-2.58.624,4.954,4.954,0,0,0-1.656,1.613,6.69,6.69,0,0,0-.881,2.279,13.332,13.332,0,0,0-.258,2.623A13.008,13.008,0,0,0-168.062,304.9Z" fill="#a1bf65"/>
        <path id="Path_51" data-name="Path 51" d="M-136.844,295.157a4.289,4.289,0,0,0-2.451.667,5.3,5.3,0,0,0-1.613,1.72,7.433,7.433,0,0,0-.881,2.322,12.605,12.605,0,0,0-.258,2.516,12.072,12.072,0,0,0,.258,2.451,7.6,7.6,0,0,0,.838,2.257,4.829,4.829,0,0,0,1.57,1.656,4.313,4.313,0,0,0,2.408.645,4.472,4.472,0,0,0,3.375-1.226,5.8,5.8,0,0,0,1.484-3.289h5.891a10.078,10.078,0,0,1-3.44,6.751,11.1,11.1,0,0,1-7.267,2.321,12.167,12.167,0,0,1-4.58-.838,10.139,10.139,0,0,1-3.547-2.343,10.649,10.649,0,0,1-2.279-3.591,12.439,12.439,0,0,1-.817-4.579,14.807,14.807,0,0,1,.753-4.795,10.76,10.76,0,0,1,2.214-3.826,10.115,10.115,0,0,1,3.569-2.516,12.106,12.106,0,0,1,4.816-.9,13.975,13.975,0,0,1,3.8.515,10.157,10.157,0,0,1,3.268,1.571,8.4,8.4,0,0,1,2.344,2.623,8.361,8.361,0,0,1,1.032,3.718h-5.977A4.1,4.1,0,0,0-136.844,295.157Z" fill="#a1bf65"/>
        <path id="Path_52" data-name="Path 52" d="M-116.248,308.058a5.462,5.462,0,0,0,3.956,1.333,5.444,5.444,0,0,0,3.183-.925,3.834,3.834,0,0,0,1.633-1.956h5.375a10.2,10.2,0,0,1-3.956,5.719,11.639,11.639,0,0,1-6.449,1.719,12.693,12.693,0,0,1-4.73-.838,9.829,9.829,0,0,1-3.57-2.386,10.753,10.753,0,0,1-2.257-3.7,13.51,13.51,0,0,1-.795-4.729,12.991,12.991,0,0,1,.816-4.645,10.9,10.9,0,0,1,2.323-3.718,10.908,10.908,0,0,1,3.59-2.473,11.5,11.5,0,0,1,4.623-.9,10.564,10.564,0,0,1,4.944,1.1A9.866,9.866,0,0,1-104.1,294.6a12.089,12.089,0,0,1,1.956,4.214,15.7,15.7,0,0,1,.431,4.945h-16.039A6.172,6.172,0,0,0-116.248,308.058Zm6.9-11.7a4.3,4.3,0,0,0-3.333-1.2,5.32,5.32,0,0,0-2.429.495,4.635,4.635,0,0,0-1.548,1.226,4.48,4.48,0,0,0-.817,1.548,6.944,6.944,0,0,0-.279,1.462h9.933A7.065,7.065,0,0,0-109.346,296.361Z" fill="#a1bf65"/>
        <path id="Path_53" data-name="Path 53" d="M-92.3,291.158v4.129h.086a7.48,7.48,0,0,1,1.161-1.914,7.616,7.616,0,0,1,1.677-1.5,8.263,8.263,0,0,1,2.021-.968,7.328,7.328,0,0,1,2.236-.343,4.813,4.813,0,0,1,1.333.214v5.676c-.287-.056-.631-.107-1.032-.15a10.928,10.928,0,0,0-1.161-.065,6.5,6.5,0,0,0-2.838.56,4.917,4.917,0,0,0-1.871,1.526,6.13,6.13,0,0,0-1.01,2.257,12.28,12.28,0,0,0-.3,2.8V313.39H-98.1V291.158Z" fill="#a1bf65"/>
        <path id="Path_54" data-name="Path 54" d="M-73.162,320.012a8.858,8.858,0,0,1-4.9,1.161q-.946,0-1.871-.065t-1.87-.15v-5.031l1.763.172a12.967,12.967,0,0,0,1.806.043,2.372,2.372,0,0,0,1.784-.947,3.047,3.047,0,0,0,.581-1.8,3.664,3.664,0,0,0-.258-1.376l-7.783-20.856h6.493l5.031,15.223h.086l4.859-15.223h6.321l-9.288,24.984A7.533,7.533,0,0,1-73.162,320.012Z" fill="#a1bf65"/>
      </g>
      <g id="Group_45" data-name="Group 45" style="isolation: isolate">
        <path id="Path_55" data-name="Path 55" d="M-201.988,334.079a6.812,6.812,0,0,0-1.506-1.7,6.958,6.958,0,0,0-2.042-1.14,7.026,7.026,0,0,0-2.386-.408,7.885,7.885,0,0,0-3.87.881,7.317,7.317,0,0,0-2.581,2.365,10.366,10.366,0,0,0-1.44,3.376,16.807,16.807,0,0,0-.452,3.913,15.623,15.623,0,0,0,.452,3.762,10.165,10.165,0,0,0,1.44,3.29,7.382,7.382,0,0,0,2.581,2.344,7.874,7.874,0,0,0,3.87.881,6.243,6.243,0,0,0,4.837-1.892,8.741,8.741,0,0,0,2.128-4.988h6.537a15.621,15.621,0,0,1-1.333,5.2,12.484,12.484,0,0,1-2.838,3.956,12.06,12.06,0,0,1-4.128,2.494,15.134,15.134,0,0,1-5.2.86,15.76,15.76,0,0,1-6.343-1.225,13.608,13.608,0,0,1-4.752-3.376,14.93,14.93,0,0,1-2.966-5.053,18.54,18.54,0,0,1-1.033-6.256,19.19,19.19,0,0,1,1.033-6.386,15.35,15.35,0,0,1,2.966-5.138,13.56,13.56,0,0,1,4.752-3.44,15.5,15.5,0,0,1,6.343-1.247,15.448,15.448,0,0,1,4.794.731,12.991,12.991,0,0,1,4.042,2.129,11.486,11.486,0,0,1,2.945,3.461,12.366,12.366,0,0,1,1.463,4.73h-6.536A5.531,5.531,0,0,0-201.988,334.079Z" fill="#fff"/>
        <path id="Path_56" data-name="Path 56" d="M-190.335,340.658a10.394,10.394,0,0,1,2.321-3.7A10.392,10.392,0,0,1-184.4,334.6a12.679,12.679,0,0,1,4.731-.839,12.845,12.845,0,0,1,4.751.839,10.36,10.36,0,0,1,3.633,2.364,10.424,10.424,0,0,1,2.322,3.7,13.645,13.645,0,0,1,.818,4.838,13.463,13.463,0,0,1-.818,4.816,10.429,10.429,0,0,1-2.322,3.676,10.111,10.111,0,0,1-3.633,2.344,13.182,13.182,0,0,1-4.751.816,13.01,13.01,0,0,1-4.731-.816,10.139,10.139,0,0,1-3.612-2.344,10.4,10.4,0,0,1-2.321-3.676,13.463,13.463,0,0,1-.818-4.816A13.645,13.645,0,0,1-190.335,340.658Zm5.546,7.44a6.918,6.918,0,0,0,.882,2.278,4.687,4.687,0,0,0,1.656,1.613,5.044,5.044,0,0,0,2.58.6,5.17,5.17,0,0,0,2.6-.6,4.643,4.643,0,0,0,1.677-1.613,6.939,6.939,0,0,0,.881-2.278,13.025,13.025,0,0,0,.259-2.6,13.333,13.333,0,0,0-.259-2.623,6.711,6.711,0,0,0-.881-2.279,4.9,4.9,0,0,0-1.677-1.613,5.039,5.039,0,0,0-2.6-.624,4.918,4.918,0,0,0-2.58.624,4.955,4.955,0,0,0-1.656,1.613,6.691,6.691,0,0,0-.882,2.279,13.407,13.407,0,0,0-.257,2.623A13.1,13.1,0,0,0-184.789,348.1Z" fill="#fff"/>
        <path id="Path_57" data-name="Path 57" d="M-158.387,334.358v3.1h.129a7.01,7.01,0,0,1,3.01-2.816,8.7,8.7,0,0,1,3.784-.882,10.362,10.362,0,0,1,4.021.667,5.959,5.959,0,0,1,2.472,1.848,7.173,7.173,0,0,1,1.269,2.881,17.973,17.973,0,0,1,.365,3.763V356.59h-6.106V344.034a7.779,7.779,0,0,0-.86-4.106,3.328,3.328,0,0,0-3.052-1.355,4.228,4.228,0,0,0-3.613,1.484q-1.117,1.482-1.117,4.88V356.59h-6.107V334.358Z" fill="#fff"/>
        <path id="Path_58" data-name="Path 58" d="M-128.073,338.357a4.286,4.286,0,0,0-2.45.667,5.284,5.284,0,0,0-1.613,1.72,7.435,7.435,0,0,0-.882,2.322,12.678,12.678,0,0,0-.257,2.516,12.141,12.141,0,0,0,.257,2.451,7.577,7.577,0,0,0,.839,2.257,4.809,4.809,0,0,0,1.569,1.656,4.315,4.315,0,0,0,2.408.645,4.472,4.472,0,0,0,3.376-1.226,5.79,5.79,0,0,0,1.483-3.289h5.891a10.078,10.078,0,0,1-3.44,6.751,11.1,11.1,0,0,1-7.267,2.321,12.186,12.186,0,0,1-4.579-.837,10.15,10.15,0,0,1-3.548-2.344,10.622,10.622,0,0,1-2.278-3.591,12.439,12.439,0,0,1-.818-4.579,14.807,14.807,0,0,1,.753-4.795,10.76,10.76,0,0,1,2.214-3.826,10.146,10.146,0,0,1,3.569-2.516,12.13,12.13,0,0,1,4.816-.9,13.981,13.981,0,0,1,3.806.515,10.2,10.2,0,0,1,3.268,1.571,8.393,8.393,0,0,1,2.343,2.623,8.362,8.362,0,0,1,1.032,3.719h-5.977A4.1,4.1,0,0,0-128.073,338.357Z" fill="#fff"/>
        <path id="Path_59" data-name="Path 59" d="M-113.84,330.919v-5.031h6.106v5.031Zm6.106,3.439V356.59h-6.106V334.358Z" fill="#fff"/>
        <path id="Path_60" data-name="Path 60" d="M-96.382,351.258a5.461,5.461,0,0,0,3.956,1.333,5.441,5.441,0,0,0,3.182-.925,3.842,3.842,0,0,0,1.634-1.956h5.375a10.206,10.206,0,0,1-3.956,5.719,11.645,11.645,0,0,1-6.45,1.719,12.714,12.714,0,0,1-4.73-.837,9.84,9.84,0,0,1-3.569-2.387,10.751,10.751,0,0,1-2.258-3.7,13.519,13.519,0,0,1-.795-4.73,12.96,12.96,0,0,1,.817-4.644,10.876,10.876,0,0,1,2.322-3.719,10.918,10.918,0,0,1,3.59-2.473,11.513,11.513,0,0,1,4.623-.9,10.56,10.56,0,0,1,4.945,1.1,9.858,9.858,0,0,1,3.461,2.945,12.117,12.117,0,0,1,1.957,4.214,15.725,15.725,0,0,1,.43,4.945H-97.887A6.17,6.17,0,0,0-96.382,351.258Zm6.9-11.7a4.291,4.291,0,0,0-3.332-1.205,5.308,5.308,0,0,0-2.43.5,4.633,4.633,0,0,0-1.548,1.225,4.481,4.481,0,0,0-.817,1.548,6.944,6.944,0,0,0-.279,1.462h9.933A7.057,7.057,0,0,0-89.481,339.562Z" fill="#fff"/>
        <path id="Path_61" data-name="Path 61" d="M-72.432,334.358v4.129h.086a7.509,7.509,0,0,1,1.161-1.914,7.639,7.639,0,0,1,1.677-1.505,8.24,8.24,0,0,1,2.021-.967,7.3,7.3,0,0,1,2.237-.344,4.786,4.786,0,0,1,1.333.215v5.675c-.288-.056-.631-.107-1.033-.15a10.9,10.9,0,0,0-1.16-.064,6.5,6.5,0,0,0-2.839.559,4.9,4.9,0,0,0-1.87,1.527,6.12,6.12,0,0,0-1.011,2.256,12.338,12.338,0,0,0-.3,2.8V356.59h-6.107V334.358Z" fill="#fff"/>
        <path id="Path_62" data-name="Path 62" d="M-41.708,358.224a7.552,7.552,0,0,1-1.57,3.2,9.355,9.355,0,0,1-3.483,2.514,14.993,14.993,0,0,1-6.106,1.033,14.177,14.177,0,0,1-3.332-.409,10.571,10.571,0,0,1-3.1-1.268,7.611,7.611,0,0,1-2.322-2.215,6.409,6.409,0,0,1-1.053-3.246h6.063a3.488,3.488,0,0,0,1.676,2.387,6.032,6.032,0,0,0,2.881.666,4.435,4.435,0,0,0,3.763-1.548,6.083,6.083,0,0,0,1.14-3.913v-2.924h-.087a6.044,6.044,0,0,1-2.816,2.6,9.127,9.127,0,0,1-3.848.839,9.708,9.708,0,0,1-4.3-.882,8.139,8.139,0,0,1-2.967-2.408,10.048,10.048,0,0,1-1.7-3.569,16.878,16.878,0,0,1-.538-4.321,13.852,13.852,0,0,1,.624-4.15,10.849,10.849,0,0,1,1.827-3.526,8.84,8.84,0,0,1,2.989-2.429,8.971,8.971,0,0,1,4.107-.9,8.591,8.591,0,0,1,3.848.817,6.644,6.644,0,0,1,2.773,2.752h.087v-2.968h5.8v20.813A14.927,14.927,0,0,1-41.708,358.224Zm-8.364-7.4a4.785,4.785,0,0,0,1.634-1.376,6.085,6.085,0,0,0,.968-1.957,8.1,8.1,0,0,0,.323-2.3,12.591,12.591,0,0,0-.259-2.6,6.5,6.5,0,0,0-.86-2.172,4.466,4.466,0,0,0-1.59-1.505,5.034,5.034,0,0,0-2.5-.56,4.477,4.477,0,0,0-2.214.517,4.66,4.66,0,0,0-1.548,1.4,5.888,5.888,0,0,0-.9,2.021,9.959,9.959,0,0,0-.279,2.387,12.111,12.111,0,0,0,.236,2.386,6.422,6.422,0,0,0,.817,2.128,4.754,4.754,0,0,0,1.526,1.549,4.32,4.32,0,0,0,2.365.6A4.855,4.855,0,0,0-50.072,350.828Z" fill="#fff"/>
        <path id="Path_63" data-name="Path 63" d="M-29.905,351.258a5.461,5.461,0,0,0,3.956,1.333,5.441,5.441,0,0,0,3.182-.925,3.842,3.842,0,0,0,1.634-1.956h5.375a10.206,10.206,0,0,1-3.956,5.719,11.645,11.645,0,0,1-6.45,1.719,12.714,12.714,0,0,1-4.73-.837,9.84,9.84,0,0,1-3.569-2.387,10.751,10.751,0,0,1-2.258-3.7,13.542,13.542,0,0,1-.795-4.73,12.96,12.96,0,0,1,.817-4.644,10.876,10.876,0,0,1,2.322-3.719,10.918,10.918,0,0,1,3.59-2.473,11.516,11.516,0,0,1,4.623-.9,10.56,10.56,0,0,1,4.945,1.1,9.858,9.858,0,0,1,3.461,2.945,12.1,12.1,0,0,1,1.957,4.214,15.725,15.725,0,0,1,.43,4.945H-31.41A6.17,6.17,0,0,0-29.905,351.258Zm6.9-11.7a4.291,4.291,0,0,0-3.332-1.205,5.308,5.308,0,0,0-2.43.5,4.619,4.619,0,0,0-1.547,1.225,4.467,4.467,0,0,0-.818,1.548,6.944,6.944,0,0,0-.279,1.462h9.933A7.049,7.049,0,0,0-23,339.562Z" fill="#fff"/>
      </g>
    </g>
    <g id="wNUKA1.tif">
      <g id="Group_42" data-name="Group 42">
        <g id="Group_41" data-name="Group 41">
          <path id="Path_47" data-name="Path 47" d="M-249.91,341.942c-2-1.465-4.018-2.921-6.012-4.4-2.938-2.18-5.851-4.393-8.8-6.552a2.466,2.466,0,0,0-1.364-.421c-6.864-.026-13.729-.015-20.6-.02a9.4,9.4,0,0,1-5.8-1.654,1.91,1.91,0,0,1-.668-2.6,1.889,1.889,0,0,1,2.59-.655l.029.018a8.242,8.242,0,0,0,4.625,1.092c6.807-.026,13.613,0,20.42-.021a4.37,4.37,0,0,1,2.815.965c3.647,2.791,7.342,5.519,11.227,8.428v-4.354c0-.937-.021-1.874-.01-2.811.017-1.5.693-2.189,2.23-2.208,2.288-.028,4.577.006,6.864-.012,3.179-.026,5.486-1.822,5.816-4.737a47.323,47.323,0,0,0,.072-5.273q0-12.454-.008-24.907a37.843,37.843,0,0,0-.208-5.781,4.856,4.856,0,0,0-4.763-4.173c-3.457-.147-6.922-.078-10.383-.1-.527,0-1.058.014-1.583-.028a1.887,1.887,0,0,1-1.792-1.821,1.722,1.722,0,0,1,1.544-1.882c.04,0,.08-.006.121-.007,1.427-.1,2.863-.091,4.3-.085,2.641.011,5.281.011,7.92.1a9.151,9.151,0,0,1,8.508,7.449,2.522,2.522,0,0,0,.181.464v36.453c-.06.193-.137.383-.18.579a8.788,8.788,0,0,1-6.731,7.19,26.8,26.8,0,0,1-5.315.348c-.9.038-1.8.007-2.772.007v1.078c0,2.52-.061,5.041.026,7.556a2.5,2.5,0,0,1-1.585,2.79Z" fill="#fff"/>
        </g>
      </g>
    </g>
  </g>
</svg>
