<svg xmlns="http://www.w3.org/2000/svg" width="51" height="51" viewBox="0 0 51 51">
  <g id="Group_51" data-name="Group 51" transform="translate(-298 -370)">
    <path id="Intersection_1" data-name="Intersection 1" d="M-18709.035,332.076a24.446,24.446,0,0,1-6.5-4.047c.943-7.857,4.008-13.652,9.3-17.249a1.784,1.784,0,0,1,2.33.122,7.687,7.687,0,0,0,9.709-.019,1.711,1.711,0,0,1,2.217-.146c5.182,3.491,8.26,9.045,9.285,16.582a24.462,24.462,0,0,1-7.273,4.756A24.345,24.345,0,0,1-18699.5,334,24.326,24.326,0,0,1-18709.035,332.076Zm9.967-21.442a9.433,9.433,0,0,1-9.543-9.417,9.37,9.37,0,0,1,9.557-9.614,9.363,9.363,0,0,1,9.545,9.511,9.43,9.43,0,0,1-9.539,9.52Z" transform="translate(19023 86)" fill="#a1bf65" stroke="rgba(0,0,0,0)" stroke-miterlimit="10" stroke-width="1"/>
    <g id="Group_49" data-name="Group 49" transform="translate(3 -371)">
      <g id="Path_16" data-name="Path 16" transform="translate(295 741)" fill="none">
        <path d="M25.5,0A25.5,25.5,0,1,1,0,25.5,25.5,25.5,0,0,1,25.5,0Z" stroke="none"/>
        <path d="M 25.5 2 C 22.32663917541504 2 19.24925994873047 2.621059417724609 16.35335159301758 3.845928192138672 C 13.55522918701172 5.029430389404297 11.04183959960938 6.724151611328125 8.882991790771484 8.882991790771484 C 6.724151611328125 11.04183959960938 5.029430389404297 13.55522918701172 3.845928192138672 16.35335159301758 C 2.621059417724609 19.24925994873047 2 22.32663917541504 2 25.5 C 2 28.67336082458496 2.621059417724609 31.75074005126953 3.845928192138672 34.64665222167969 C 5.029430389404297 37.44477081298828 6.724151611328125 39.95816040039062 8.882991790771484 42.11701202392578 C 11.04183959960938 44.27584838867188 13.55522918701172 45.9705696105957 16.35335159301758 47.15406799316406 C 19.24925994873047 48.37894058227539 22.32663917541504 49 25.5 49 C 28.67336082458496 49 31.75074005126953 48.37894058227539 34.64665222167969 47.15406799316406 C 37.44477081298828 45.9705696105957 39.95816040039062 44.27584838867188 42.11701202392578 42.11701202392578 C 44.27584838867188 39.95816040039062 45.9705696105957 37.44477081298828 47.15406799316406 34.64665222167969 C 48.37894058227539 31.75074005126953 49 28.67336082458496 49 25.5 C 49 22.32663917541504 48.37894058227539 19.24925994873047 47.15406799316406 16.35335159301758 C 45.9705696105957 13.55522918701172 44.27584838867188 11.04183959960938 42.11701202392578 8.882991790771484 C 39.95816040039062 6.724151611328125 37.44477081298828 5.029430389404297 34.64665222167969 3.845928192138672 C 31.75074005126953 2.621059417724609 28.67336082458496 2 25.5 2 M 25.5 0 C 39.58325958251953 0 51 11.41674041748047 51 25.5 C 51 39.58325958251953 39.58325958251953 51 25.5 51 C 11.41674041748047 51 0 39.58325958251953 0 25.5 C 0 11.41674041748047 11.41674041748047 0 25.5 0 Z" stroke="none" fill="#a1bf65"/>
      </g>
    </g>
  </g>
</svg>
