<svg xmlns="http://www.w3.org/2000/svg" width="51" height="51" viewBox="0 0 51 51">
  <g id="Group_50" data-name="Group 50" transform="translate(-32 -298)">
    <g id="Ellipse_1" data-name="Ellipse 1" transform="translate(32 298)" fill="#fff" stroke="#000" stroke-width="2">
      <circle cx="25.5" cy="25.5" r="25.5" stroke="none"/>
      <circle cx="25.5" cy="25.5" r="24.5" fill="none"/>
    </g>
    <g id="xA6g8Z.tif" transform="translate(-34.172 165.778)">
      <g id="Group_35" data-name="Group 35" transform="translate(76 140.222)">
        <path id="Path_17" data-name="Path 17" d="M234,452.4q0-5.4,0-10.8c0-.828.258-1.1,1.044-1.1q2.722,0,5.445,0c.644,0,.833-.2.836-.877,0-.561-.01-1.123.013-1.684a.469.469,0,0,1,.214-.334c.681-.345,1.374-.664,2.1-1.008a1.945,1.945,0,0,0,.316.474,4.655,4.655,0,0,0,1.069.8c2.3,1.024,4.61,2.012,6.921,3a5.169,5.169,0,0,1,3.219,4.144.53.53,0,0,0,.059.128V452.4Zm12.651-5.453c.654,0,1.309,0,1.963,0,.514,0,.576-.064.574-.614,0-.244,0-.487,0-.731s-.123-.376-.343-.376q-2.156-.009-4.313,0c-.242,0-.358.142-.355.4,0,.28,0,.56,0,.841,0,.411.071.483.477.486C245.319,446.954,245.985,446.951,246.651,446.951Zm-10.169,4.515a.815.815,0,0,0,.822-.813.81.81,0,1,0-1.618-.029A.823.823,0,0,0,236.483,451.465Zm0-7.9a.827.827,0,1,0-.8-.84A.82.82,0,0,0,236.485,443.564Zm6.027-.839a.793.793,0,0,0-.806-.817.826.826,0,0,0,.017,1.651A.793.793,0,0,0,242.512,442.725ZM236.5,447.51a.826.826,0,0,0-.014-1.652.819.819,0,0,0-.8.834A.81.81,0,0,0,236.5,447.51Zm6.012-.826a.8.8,0,0,0-.8-.826.828.828,0,0,0,0,1.655A.8.8,0,0,0,242.514,446.684Zm-.8,3.122a.829.829,0,0,0-.807.835.815.815,0,0,0,.81.824.8.8,0,0,0,.8-.829A.808.808,0,0,0,241.714,449.806Z" transform="translate(-222.891 -415.765)"/>
        <path id="Path_18" data-name="Path 18" d="M186.939,140.222c.646.095,1.3.145,1.935.293,1.683.394,3.364.8,5.03,1.259a1.956,1.956,0,0,1,1.183,2.826c-.38.738-.819,1.447-1.179,2.194a3.5,3.5,0,0,0-.336,1.193c-.07.81-.061,1.626-.084,2.428a5.961,5.961,0,0,1,.816.388,1.674,1.674,0,0,1,.779,1.422A2.948,2.948,0,0,1,193,155.292a.592.592,0,0,0-.292.364,6.613,6.613,0,0,1-5.183,4.85,6.69,6.69,0,0,1-7.8-4.882.44.44,0,0,0-.351-.363,2.8,2.8,0,0,1-1.991-2.428A1.909,1.909,0,0,1,179,150.445c-.048-.411-.107-.826-.143-1.243-.051-.6-.078-1.208-.131-1.811a1.244,1.244,0,0,0-.139-.458c-.387-.734-.79-1.461-1.182-2.193a1.986,1.986,0,0,1,1.357-3.04c1.643-.41,3.283-.833,4.933-1.215.6-.139,1.223-.178,1.836-.262Zm4.648,10.042a38.517,38.517,0,0,1-10.694.024,2.046,2.046,0,0,0,0,.282c.179,1.392.329,2.788.551,4.173a4.83,4.83,0,0,0,4.528,4.041,4.753,4.753,0,0,0,4.9-3.616C191.226,153.554,191.357,151.892,191.587,150.264Zm-10.968-2.936a5.713,5.713,0,0,1,.336.587.958.958,0,0,0,.893.616c.116.008.23.048.346.059a42.226,42.226,0,0,0,8,0,1.492,1.492,0,0,0,1.546-1.257A74.456,74.456,0,0,1,180.619,147.327Z" transform="translate(-169.993 -140.222)"/>
        <path id="Path_19" data-name="Path 19" d="M76,449.389c.059-.232.113-.466.178-.7a5.212,5.212,0,0,1,3.066-3.534q3.448-1.485,6.909-2.938a2.746,2.746,0,0,0,1.432-1.05c.75.291,1.461.561,2.165.848a.351.351,0,0,1,.174.251c.021.327.008.655.008,1.036-.686,0-1.349,0-2.012,0a2.191,2.191,0,0,0-2.161,2.1q-.012,5.568-.008,11.136a.537.537,0,0,0,.022.106H76Z" transform="translate(-76 -420.011)"/>
        <path id="Path_20" data-name="Path 20" d="M381.194,555.914c-.666,0-1.332,0-2,0-.405,0-.472-.071-.477-.466,0-.269,0-.538,0-.806,0-.244.112-.379.355-.38q2.156,0,4.313,0a.325.325,0,0,1,.343.361c0,.234,0,.468,0,.7,0,.529-.06.591-.574.589C382.5,555.913,381.848,555.914,381.194,555.914Z" transform="translate(-357.433 -525.147)" fill="#fff"/>
      </g>
    </g>
    <path id="Path_64" data-name="Path 64" d="M18767.016,58.639s7.8,5.74,15.84,4.9,13.32-3.616,14.328-4.587a5.967,5.967,0,0,0,1.4-2.192l-12.838,1.88-8.369-.237Z" transform="translate(-18725 284)"/>
  </g>
</svg>
